<svg xmlns="http://www.w3.org/2000/svg" version="1.1" viewBox="0 0 1002 413" width="1002" height="413"><defs/><g><g class="cluster" data-qualified-name="H. th.ng Qu.n l. Nh. h.ng" id="ent0003" data-source-line="28"><rect x="14" y="95.50" width="986" height="299" rx="2.50" ry="2.50" fill="#FFFFFF" stroke="#111827" stroke-width="1"/><text x="405.98" y="109.50" font-size="13" fill="#000000" xml:space="preserve" style="white-space: pre" font-weight="bold" font-family="'DejaVu Sans'">Hệ thống Quản lý Nhà hàng</text></g><g class="entity" data-qualified-name="KH" id="ent0001" data-source-line="25"><circle cx="127.47" cy="12.50" r="8" fill="#FDE68A" stroke="#1F2937" stroke-width="0.50"/><path d="M127.47,20.50 L127.47,47.50 M114.47,28.50 L140.47,28.50 M127.47,47.50 L114.47,62.50 M127.47,47.50 L140.47,62.50" fill="#00000000" stroke="#1F2937" stroke-width="0.50"/><text x="89" y="76" font-size="13" fill="#000000" xml:space="preserve" style="white-space: pre" font-family="'DejaVu Sans'">Khách hàng</text></g><g class="entity" data-qualified-name="NV" id="ent0002" data-source-line="26"><circle cx="896.92" cy="12.50" r="8" fill="#FDE68A" stroke="#1F2937" stroke-width="0.50"/><path d="M896.92,20.50 L896.92,47.50 M883.92,28.50 L909.92,28.50 M896.92,47.50 L883.92,62.50 M896.92,47.50 L909.92,62.50" fill="#00000000" stroke="#1F2937" stroke-width="0.50"/><text x="864" y="76" font-size="13" fill="#000000" xml:space="preserve" style="white-space: pre" font-family="'DejaVu Sans'">Nhân viên</text></g><g class="entity" data-qualified-name="GMN25" id="ent0026" data-source-line="60"><path d="M321,39.50 L321,61.61 L434.91,276.30 L321,69.61 L321,79.50 A0,0 0 0 0 321,79.50 L712.35,79.50 A0,0 0 0 0 712.35,79.50 L712.35,49.50 L702.35,39.50 L321,39.50 A0,0 0 0 0 321,39.50" fill="#FEFFDD" stroke="#181818" stroke-width="0.50"/><path d="M702.35,39.50 L702.35,49.50 L712.35,49.50 L702.35,39.50" fill="#FEFFDD" stroke="#181818" stroke-width="0.50"/><text x="327" y="56.50" font-size="13" fill="#000000" xml:space="preserve" style="white-space: pre" font-family="'DejaVu Sans'">Tiền điều kiện: KHÔNG cần chọn bàn.</text><text x="327" y="71.50" font-size="13" fill="#000000" xml:space="preserve" style="white-space: pre" font-family="'DejaVu Sans'">Bắt buộc nhập địa chỉ giao hàng và số điện thoại liên hệ.</text></g><g class="entity" data-qualified-name="H. th.ng Qu.n l. Nh. h.ng.UC_DatGiao" id="ent0004" data-source-line="29"><ellipse cx="516.27" cy="267.65" rx="81.27" ry="18.65" fill="#DBEAFE" stroke="#2563EB" stroke-width="0.50"/><text x="447.57" y="271.65" font-size="13" fill="#1E3A8A" xml:space="preserve" style="white-space: pre" font-family="'DejaVu Sans'">Đặt món giao tận nơi</text></g><g class="entity" data-qualified-name="H. th.ng Qu.n l. Nh. h.ng.UC_ChonMon" id="ent0005" data-source-line="30"><ellipse cx="896.80" cy="247.36" rx="84.80" ry="19.36" fill="#DBEAFE" stroke="#2563EB" stroke-width="0.50"/><text x="824.10" y="251.36" font-size="13" fill="#1E3A8A" xml:space="preserve" style="white-space: pre" font-family="'DejaVu Sans'">Chọn món từ thực đơn</text></g><g class="entity" data-qualified-name="H. th.ng Qu.n l. Nh. h.ng.UC_GioHang" id="ent0006" data-source-line="31"><ellipse cx="896.94" cy="193.39" rx="69.94" ry="16.39" fill="#DBEAFE" stroke="#2563EB" stroke-width="0.50"/><text x="841.49" y="197.39" font-size="13" fill="#1E3A8A" xml:space="preserve" style="white-space: pre" font-family="'DejaVu Sans'">Quản lý giỏ hàng</text></g><g class="entity" data-qualified-name="H. th.ng Qu.n l. Nh. h.ng.UC_NhapDiaChi" id="ent0007" data-source-line="32"><ellipse cx="896.86" cy="358.27" rx="86.86" ry="19.77" fill="#DBEAFE" stroke="#2563EB" stroke-width="0.50"/><text x="821.85" y="362.27" font-size="13" fill="#1E3A8A" xml:space="preserve" style="white-space: pre" font-family="'DejaVu Sans'">Nhập địa chỉ giao hàng</text></g><g class="entity" data-qualified-name="H. th.ng Qu.n l. Nh. h.ng.UC_XacNhanDon" id="ent0008" data-source-line="33"><ellipse cx="896.92" cy="302.68" rx="76.42" ry="17.68" fill="#DBEAFE" stroke="#2563EB" stroke-width="0.50"/><text x="833.80" y="306.68" font-size="13" fill="#1E3A8A" xml:space="preserve" style="white-space: pre" font-family="'DejaVu Sans'">Xác nhận đơn hàng</text></g><g class="entity" data-qualified-name="H. th.ng Qu.n l. Nh. h.ng.UC_TheoDoi" id="ent0009" data-source-line="34"><ellipse cx="127.58" cy="157.52" rx="88.08" ry="20.02" fill="#DBEAFE" stroke="#2563EB" stroke-width="0.50"/><text x="51.21" y="161.52" font-size="13" fill="#1E3A8A" xml:space="preserve" style="white-space: pre" font-family="'DejaVu Sans'">Theo dõi trạng thái đơn</text></g><g class="entity" data-qualified-name="H. th.ng Qu.n l. Nh. h.ng.UC_Pickup" id="ent0010" data-source-line="36"><ellipse cx="127.47" cy="239.39" rx="97.47" ry="21.89" fill="#DBEAFE" stroke="#2563EB" stroke-width="0.50"/><text x="40.76" y="243.39" font-size="13" fill="#1E3A8A" xml:space="preserve" style="white-space: pre" font-family="'DejaVu Sans'">Đặt món mang về (Pickup)</text></g><g class="entity" data-qualified-name="H. th.ng Qu.n l. Nh. h.ng.UC_Voucher" id="ent0011" data-source-line="37"><ellipse cx="516.48" cy="155.40" rx="69.98" ry="16.40" fill="#DBEAFE" stroke="#2563EB" stroke-width="0.50"/><text x="460.98" y="159.40" font-size="13" fill="#1E3A8A" xml:space="preserve" style="white-space: pre" font-family="'DejaVu Sans'">Áp dụng voucher</text></g><g class="entity" data-qualified-name="H. th.ng Qu.n l. Nh. h.ng.UC_GhiChu" id="ent0012" data-source-line="38"><ellipse cx="516.71" cy="205.74" rx="66.71" ry="15.74" fill="#DBEAFE" stroke="#2563EB" stroke-width="0.50"/><text x="465.21" y="209.74" font-size="13" fill="#1E3A8A" xml:space="preserve" style="white-space: pre" font-family="'DejaVu Sans'">Ghi chú món ăn</text></g><g class="entity" data-qualified-name="H. th.ng Qu.n l. Nh. h.ng.UC_HuyDon" id="ent0013" data-source-line="39"><ellipse cx="127.51" cy="294.30" rx="62.01" ry="14.80" fill="#DBEAFE" stroke="#2563EB" stroke-width="0.50"/><text x="81.95" y="298.30" font-size="13" fill="#1E3A8A" xml:space="preserve" style="white-space: pre" font-family="'DejaVu Sans'">Hủy đơn hàng</text></g><g class="link" data-entity-1="ent0001" data-entity-2="ent0004" id="lnk14" data-link-type="association"><path d="M166.4119,55.9575 C185.3734,64.4119 207.8687,76.4075 225,91.5 C281.3356,141.1311 258.083,189.5319 321,230.5 C354.4134,252.257 397.4811,261.8936 434.5934,265.9268" fill="none" stroke="#1F2937" stroke-width="1"/></g><g class="link" data-entity-1="ent0001" data-entity-2="ent0009" id="lnk15" data-link-type="association"><path d="M127.5,79.2209 C127.5,98.517 127.5,117.8132 127.5,137.1094" fill="none" stroke="#1F2937" stroke-width="1"/></g><g class="link" data-entity-1="ent0002" data-entity-2="ent0008" id="lnk16" data-link-type="association"><path d="M863.8037,45.5876 C831.3666,51.5417 783.6634,65.9639 761,100.5 C720.2786,162.5541 715.5251,208.8402 761,267.5 C775.2654,285.9014 797.8137,295.4444 820.48,300.1774" fill="none" stroke="#1F2937" stroke-width="1"/></g><g class="link" data-entity-1="ent0004" data-entity-2="ent0005" id="lnk17" data-link-type="dependency"><polygon points="839.14,267.02 829.39,265.65 834.33,268.39 831.59,273.34 839.14,267.02" fill="#1F2937" stroke="#1F2937" stroke-width="1"/><path d="M598.0639,277.8722 C652.9741,283.1241 727.1926,286.6605 792,277.5 C807.5367,275.3039 819.1955,272.7249 834.3314,268.3918" fill="none" stroke="#1F2937" stroke-width="1" stroke-dasharray="7,7"/><text x="732" y="272.50" font-size="12" fill="#000000" xml:space="preserve" style="white-space: pre" font-family="'DejaVu Sans'">«include»</text></g><g class="link" data-entity-1="ent0004" data-entity-2="ent0006" id="lnk18" data-link-type="dependency"><polygon points="832.92,210.04 823.23,208.31 828.07,211.24 825.14,216.08 832.92,210.04" fill="#1F2937" stroke="#1F2937" stroke-width="1"/><path d="M598.2685,254.9435 C653.1074,246.0345 727.1632,233.2548 792,219.5 C805.2904,216.6805 814.6027,214.5499 828.0662,211.236" fill="none" stroke="#1F2937" stroke-width="1" stroke-dasharray="7,7"/><text x="732" y="214.50" font-size="12" fill="#000000" xml:space="preserve" style="white-space: pre" font-family="'DejaVu Sans'">«include»</text></g><g class="link" data-entity-1="ent0004" data-entity-2="ent0007" id="lnk19" data-link-type="dependency"><polygon points="809.96,343.96 801.84,338.39 805.04,343.06 800.38,346.26 809.96,343.96" fill="#1F2937" stroke="#1F2937" stroke-width="1"/><path d="M577.5757,286.0332 C619.9272,298.7117 678.1167,315.3571 730,327.5 C755.8344,333.5464 779.2319,338.2829 805.0441,343.0554" fill="none" stroke="#1F2937" stroke-width="1" stroke-dasharray="7,7"/><text x="732" y="322.50" font-size="12" fill="#000000" xml:space="preserve" style="white-space: pre" font-family="'DejaVu Sans'">«include»</text></g><g class="link" data-entity-1="ent0004" data-entity-2="ent0008" id="lnk20" data-link-type="dependency"><polygon points="820.46,304.12 811.39,300.27 815.46,304.20 811.52,308.27 820.46,304.12" fill="#1F2937" stroke="#1F2937" stroke-width="1"/><path d="M598.0491,284.8962 C637.5941,292.5722 686.0694,300.704 730,304.5 C757.4533,306.8722 764.4457,304.7649 792,304.5 C801.2096,304.4115 805.878,304.3601 815.4558,304.2044" fill="none" stroke="#1F2937" stroke-width="1" stroke-dasharray="7,7"/><text x="732" y="299.50" font-size="12" fill="#000000" xml:space="preserve" style="white-space: pre" font-family="'DejaVu Sans'">«include»</text></g><g class="link" data-entity-1="ent0010" data-entity-2="ent0004" id="lnk21" data-link-type="dependency"><polygon points="434.75,261.66 426.06,257.02 429.76,261.30 425.48,265.00 434.75,261.66" fill="#1F2937" stroke="#1F2937" stroke-width="1"/><path d="M225.1582,246.4934 C289.7476,251.1665 368.746,256.8821 429.7615,261.2967" fill="none" stroke="#1F2937" stroke-width="1" stroke-dasharray="7,7"/><text x="245" y="243.50" font-size="12" fill="#000000" xml:space="preserve" style="white-space: pre" font-family="'DejaVu Sans'">«extend»</text></g><g class="link" data-entity-1="ent0011" data-entity-2="ent0006" id="lnk22" data-link-type="dependency"><polygon points="826.73,182.13 818.40,176.86 821.78,181.40 817.24,184.78 826.73,182.13" fill="#1F2937" stroke="#1F2937" stroke-width="1"/><path d="M586.7343,159.6518 C642.3196,163.3213 722.3142,169.358 792,177.5 C803.2496,178.8144 810.203,179.7064 821.7796,181.4011" fill="none" stroke="#1F2937" stroke-width="1" stroke-dasharray="7,7"/><text x="733" y="166.50" font-size="12" fill="#000000" xml:space="preserve" style="white-space: pre" font-family="'DejaVu Sans'">«extend»</text></g><g class="link" data-entity-1="ent0012" data-entity-2="ent0006" id="lnk23" data-link-type="dependency"><polygon points="826.99,195.69 817.87,191.98 821.99,195.85 818.12,199.97 826.99,195.69" fill="#1F2937" stroke="#1F2937" stroke-width="1"/><path d="M583.4297,203.4098 C651.63,201.2475 752.6784,198.0439 821.9924,195.8463" fill="none" stroke="#1F2937" stroke-width="1" stroke-dasharray="7,7"/><text x="733" y="191.50" font-size="12" fill="#000000" xml:space="preserve" style="white-space: pre" font-family="'DejaVu Sans'">«extend»</text></g><g class="link" data-entity-1="ent0013" data-entity-2="ent0004" id="lnk24" data-link-type="dependency"><polygon points="434.84,275.54 425.50,272.40 429.86,276.01 426.25,280.37 434.84,275.54" fill="#1F2937" stroke="#1F2937" stroke-width="1"/><path d="M189.5082,292.3517 C223.027,291.0082 265.3289,289.0464 303,286.5 C346.6071,283.5523 390.1845,279.7549 429.8615,276.011" fill="none" stroke="#1F2937" stroke-width="1" stroke-dasharray="7,7"/><text x="245" y="281.50" font-size="12" fill="#000000" xml:space="preserve" style="white-space: pre" font-family="'DejaVu Sans'">«extend»</text></g><?plantuml-src hLPDRzn46BxxLxpQFJGvRCXke2rHYRIVsLLQ0yqcAYSqiIVh8TwPhJrEMQfAf3r4W2e8xOLRmeSge1LK211hmSLH_eVv9RpZYREskqauT2whcNcUzyll--nSWNTUupAk03HwSVXm0uw_YiEleLc7zJXy3gqu_DvSXNy_VGeRpSNQihgU_D67Mz4J4rPxzNUX7q-Ucs2U7FPWhjM-sTjit_vWNjdhHqSMS2VwbeFbH2-uimnh3fuvu4I7V02dAmCREN7umpAOoMQNHJznc3i-O76u5oHt1moE3qwEU6A-WUUF0Zo8moSWWtZoZ8ECmvSWJtv5p03Yy4S-M0QVtWqej-WRYxMAJMHbA7Xbm8YeIC8hNB25KJ1qqU1hBQVXxp0-8XuPWastIU3AZk3I94EQfbrgqO_8PW3hXFkbsV1rziaPlBgKmVWEiSKzDgsXNjl4zMa6vZ9EvNX4yoWGddH41kOHlkFJKG45RovcC7NF4_UQmXLU3bEkTcflBrqh0el1O_YrBCQImci8pwPUrkGCOmcGM3i3JmJSJi7bJgjzzNez0zpmgKLyMhHPhhrrTQdTc04is2ot6krwf_qgK6MIZx6zLC-vlaqjRAI1Mt1UhbQhrslNPWABpZl9cWLD2Yd7hgxabd1jmt3fjWGfm6C3HuBDF0GpmGs3g6f1AJjZ9I0-h7NJgynWbK1TcPk6uQNEeDIDmtsGQj2mjTx7aVgEWnlzhGRoC3Lutr2X1BeyK59oyAU4OVGR1pLLE8AJ5npuoH4h9K6ZbutcXoqYL_4spssYfyTSSt5oVqvSlxJqZ6VPJKVmMvXYZfs9Ru1Iy6KQOBeqTPM9BcQNfveE1ZbAfECBWk8KXv_fuCzCQBBfa56BaQR3ylmxMhAIJ9DW2xur-mwnq01l5GFlErI07VtEG7hnH2cLn4_6pjBMR8Lg2MQSN-uXvWMxA8umznwpTeBHVEcKgxTvPhGt0XlbLN54O3dKcvRgbBQfp_EyLOSf-PvedyUFU8QMrjXXJIV8qx2Lderd5YT3x0PZLPq71iflvU85DtlHvoQinPD_-lYNiTS4inizD2-W6MjTg6HxBzsdbJKtzJxpdIwE0sxSODno0vkkhC3SLZpvHS9M48VVMFFdqunf1B2mi99fPrM7vQpD6T3Jzlq_q6cpNWgTPbo0Nfe__LXIRglqPVJNE1cTntp-egzmrewGUa-3INod1erf_xsIUn6d-mqknUdskiIlmOMaAArIYY68xRnOzTNRGysuVeFiuCy-nsTCDtgAZo8hUNFe6i0MDla2KXgPjj0QSQxGm2xAgezggntiemew0XM1uJ-tUliWV7_1m311nMZy1m00?></g></svg>